# This file uses centimeters as units for non-parametric coordinates.

mtllib flyer.mtl
g default
v 17.000000 -0.708694 3.314425
v 16.298640 -0.708694 4.000000
v 17.000000 -0.708694 4.685575
v 17.701360 -0.708694 4.000000
v 17.000000 0.707107 4.000000
v 17.000000 -2.124495 4.000000
vt 0.001849 0.332762
vt 0.332249 0.332762
vt 0.332249 0.663532
vt 0.332249 0.001992
vt 0.662648 0.332762
vt 0.332249 0.332762
vt 0.926584 0.998008
vt 0.596185 0.998008
vt 0.926584 0.667238
vn -0.660533 0.327215 -0.675741
vn -0.660533 0.327215 -0.675741
vn -0.660533 0.327215 -0.675741
vn -0.660533 0.327215 0.675741
vn -0.660533 0.327215 0.675741
vn -0.660533 0.327215 0.675741
vn 0.660533 0.327216 0.675741
vn 0.660533 0.327216 0.675741
vn 0.660533 0.327216 0.675741
vn 0.660533 0.327216 -0.675741
vn 0.660533 0.327216 -0.675741
vn 0.660533 0.327216 -0.675741
vn 0.660533 -0.327216 -0.675741
vn 0.660533 -0.327216 -0.675741
vn 0.660533 -0.327216 -0.675741
vn 0.660533 -0.327216 0.675741
vn 0.660533 -0.327216 0.675741
vn 0.660533 -0.327216 0.675741
vn -0.660533 -0.327215 0.675741
vn -0.660533 -0.327215 0.675741
vn -0.660533 -0.327215 0.675741
vn -0.660533 -0.327215 -0.675741
vn -0.660533 -0.327215 -0.675741
vn -0.660533 -0.327215 -0.675741
s off
g pyramid_07
usemtl pyramid_06SG
f 1/1/1 2/2/2 5/3/3
f 2/2/4 3/5/5 5/3/6
f 3/5/7 4/6/8 5/3/9
f 4/6/10 1/1/11 5/3/12
f 1/1/13 4/6/14 6/4/15
f 4/7/16 3/8/17 6/9/18
f 3/5/19 2/2/20 6/4/21
f 2/2/22 1/1/23 6/4/24
